<?xml version="1.0" encoding="UTF-8" ?>
<svg version="1.1" width="64" height="64" xmlns="http://www.w3.org/2000/svg" shape-rendering="crispEdges">
<rect x="0" y="0" width="64" height="64" fill="#F08080" />
<rect x="0" y="0" width="1" height="2" fill="#CA6262" />
<rect x="4" y="0" width="1" height="2" fill="#CA6262" />
<rect x="5" y="0" width="1" height="2" fill="#DE7676" />
<rect x="6" y="0" width="1" height="2" fill="#CA6262" />
<rect x="12" y="0" width="1" height="2" fill="#CA6262" />
<rect x="20" y="0" width="1" height="2" fill="#CA6262" />
<rect x="24" y="0" width="1" height="2" fill="#CA6262" />
<rect x="25" y="0" width="1" height="2" fill="#D68585" />
<rect x="26" y="0" width="1" height="2" fill="#CA6262" />
<rect x="32" y="0" width="1" height="2" fill="#CA6262" />
<rect x="36" y="0" width="1" height="2" fill="#CA6262" />
<rect x="38" y="0" width="1" height="2" fill="#CA6262" />
<rect x="44" y="0" width="1" height="2" fill="#CA6262" />
<rect x="45" y="0" width="1" height="2" fill="#DE7676" />
<rect x="46" y="0" width="1" height="4" fill="#DE7676" />
<rect x="47" y="0" width="1" height="6" fill="#DE7676" />
<rect x="48" y="0" width="1" height="8" fill="#DE7676" />
<rect x="49" y="0" width="1" height="6" fill="#DE7676" />
<rect x="50" y="0" width="1" height="4" fill="#DE7676" />
<rect x="51" y="0" width="1" height="2" fill="#DE7676" />
<rect x="52" y="0" width="1" height="2" fill="#CA6262" />
<rect x="56" y="0" width="1" height="2" fill="#CA6262" />
<rect x="58" y="0" width="1" height="2" fill="#CA6262" />
<rect x="5" y="2" width="1" height="2" fill="#CA6262" />
<rect x="11" y="2" width="1" height="2" fill="#CA6262" />
<rect x="13" y="2" width="1" height="2" fill="#CA6262" />
<rect x="19" y="2" width="1" height="2" fill="#CA6262" />
<rect x="25" y="2" width="1" height="2" fill="#CA6262" />
<rect x="31" y="2" width="1" height="2" fill="#CA6262" />
<rect x="37" y="2" width="1" height="2" fill="#CA6262" />
<rect x="43" y="2" width="1" height="2" fill="#CA6262" />
<rect x="45" y="2" width="1" height="2" fill="#CA6262" />
<rect x="51" y="2" width="1" height="2" fill="#CA6262" />
<rect x="57" y="2" width="1" height="2" fill="#CA6262" />
<rect x="63" y="2" width="1" height="2" fill="#CA6262" />
<rect x="4" y="4" width="1" height="2" fill="#CA6262" />
<rect x="6" y="4" width="1" height="2" fill="#CA6262" />
<rect x="10" y="4" width="1" height="2" fill="#CA6262" />
<rect x="14" y="4" width="1" height="2" fill="#CA6262" />
<rect x="18" y="4" width="1" height="2" fill="#CA6262" />
<rect x="24" y="4" width="1" height="2" fill="#CA6262" />
<rect x="26" y="4" width="1" height="2" fill="#CA6262" />
<rect x="30" y="4" width="1" height="2" fill="#CA6262" />
<rect x="36" y="4" width="1" height="2" fill="#CA6262" />
<rect x="38" y="4" width="1" height="2" fill="#CA6262" />
<rect x="42" y="4" width="1" height="2" fill="#CA6262" />
<rect x="46" y="4" width="1" height="2" fill="#CA6262" />
<rect x="50" y="4" width="1" height="2" fill="#CA6262" />
<rect x="56" y="4" width="1" height="2" fill="#CA6262" />
<rect x="58" y="4" width="1" height="2" fill="#CA6262" />
<rect x="62" y="4" width="1" height="2" fill="#CA6262" />
<rect x="3" y="6" width="1" height="2" fill="#CA6262" />
<rect x="7" y="6" width="1" height="2" fill="#CA6262" />
<rect x="9" y="6" width="1" height="2" fill="#CA6262" />
<rect x="15" y="6" width="1" height="2" fill="#CA6262" />
<rect x="17" y="6" width="1" height="2" fill="#CA6262" />
<rect x="23" y="6" width="1" height="2" fill="#CA6262" />
<rect x="27" y="6" width="1" height="2" fill="#CA6262" />
<rect x="29" y="6" width="1" height="2" fill="#CA6262" />
<rect x="35" y="6" width="1" height="2" fill="#CA6262" />
<rect x="39" y="6" width="1" height="2" fill="#CA6262" />
<rect x="41" y="6" width="1" height="2" fill="#CA6262" />
<rect x="47" y="6" width="1" height="2" fill="#CA6262" />
<rect x="49" y="6" width="1" height="2" fill="#CA6262" />
<rect x="55" y="6" width="1" height="2" fill="#CA6262" />
<rect x="59" y="6" width="1" height="2" fill="#CA6262" />
<rect x="61" y="6" width="1" height="2" fill="#CA6262" />
<rect x="2" y="8" width="1" height="2" fill="#CA6262" />
<rect x="8" y="8" width="1" height="2" fill="#CA6262" />
<rect x="16" y="8" width="1" height="2" fill="#CA6262" />
<rect x="22" y="8" width="1" height="2" fill="#CA6262" />
<rect x="28" y="8" width="1" height="2" fill="#CA6262" />
<rect x="34" y="8" width="1" height="2" fill="#CA6262" />
<rect x="40" y="8" width="1" height="2" fill="#CA6262" />
<rect x="48" y="8" width="1" height="2" fill="#CA6262" />
<rect x="54" y="8" width="1" height="2" fill="#CA6262" />
<rect x="60" y="8" width="1" height="2" fill="#CA6262" />
<rect x="1" y="10" width="1" height="2" fill="#CA6262" />
<rect x="7" y="10" width="1" height="2" fill="#CA6262" />
<rect x="9" y="10" width="1" height="2" fill="#CA6262" />
<rect x="15" y="10" width="1" height="2" fill="#CA6262" />
<rect x="16" y="10" width="1" height="10" fill="#DE7676" />
<rect x="17" y="10" width="1" height="2" fill="#CA6262" />
<rect x="21" y="10" width="1" height="2" fill="#CA6262" />
<rect x="27" y="10" width="1" height="2" fill="#CA6262" />
<rect x="28" y="10" width="1" height="10" fill="#DE7676" />
<rect x="29" y="10" width="1" height="2" fill="#CA6262" />
<rect x="33" y="10" width="1" height="2" fill="#CA6262" />
<rect x="39" y="10" width="1" height="2" fill="#CA6262" />
<rect x="41" y="10" width="1" height="2" fill="#CA6262" />
<rect x="47" y="10" width="1" height="2" fill="#CA6262" />
<rect x="48" y="10" width="1" height="10" fill="#DE7676" />
<rect x="49" y="10" width="1" height="2" fill="#CA6262" />
<rect x="53" y="10" width="1" height="2" fill="#CA6262" />
<rect x="59" y="10" width="1" height="2" fill="#CA6262" />
<rect x="60" y="10" width="1" height="10" fill="#D68585" />
<rect x="61" y="10" width="1" height="2" fill="#CA6262" />
<rect x="0" y="12" width="1" height="2" fill="#CA6262" />
<rect x="6" y="12" width="1" height="2" fill="#CA6262" />
<rect x="10" y="12" width="1" height="2" fill="#CA6262" />
<rect x="14" y="12" width="1" height="2" fill="#CA6262" />
<rect x="15" y="12" width="1" height="10" fill="#DE7676" />
<rect x="17" y="12" width="1" height="6" fill="#DE7676" />
<rect x="18" y="12" width="1" height="2" fill="#CA6262" />
<rect x="20" y="12" width="1" height="2" fill="#CA6262" />
<rect x="26" y="12" width="1" height="2" fill="#CA6262" />
<rect x="27" y="12" width="1" height="10" fill="#DE7676" />
<rect x="29" y="12" width="1" height="6" fill="#DE7676" />
<rect x="30" y="12" width="1" height="2" fill="#CA6262" />
<rect x="32" y="12" width="1" height="2" fill="#CA6262" />
<rect x="38" y="12" width="1" height="2" fill="#CA6262" />
<rect x="42" y="12" width="1" height="2" fill="#CA6262" />
<rect x="46" y="12" width="1" height="2" fill="#CA6262" />
<rect x="47" y="12" width="1" height="10" fill="#DE7676" />
<rect x="49" y="12" width="1" height="6" fill="#DE7676" />
<rect x="50" y="12" width="1" height="2" fill="#CA6262" />
<rect x="52" y="12" width="1" height="2" fill="#CA6262" />
<rect x="58" y="12" width="1" height="2" fill="#CA6262" />
<rect x="59" y="12" width="1" height="10" fill="#D68585" />
<rect x="61" y="12" width="1" height="6" fill="#D68585" />
<rect x="62" y="12" width="1" height="2" fill="#CA6262" />
<rect x="5" y="14" width="1" height="2" fill="#CA6262" />
<rect x="11" y="14" width="1" height="2" fill="#CA6262" />
<rect x="13" y="14" width="1" height="2" fill="#CA6262" />
<rect x="14" y="14" width="1" height="6" fill="#DE7676" />
<rect x="18" y="14" width="1" height="2" fill="#DE7676" />
<rect x="19" y="14" width="1" height="2" fill="#CA6262" />
<rect x="25" y="14" width="1" height="2" fill="#CA6262" />
<rect x="26" y="14" width="1" height="10" fill="#DE7676" />
<rect x="30" y="14" width="1" height="2" fill="#DE7676" />
<rect x="31" y="14" width="1" height="2" fill="#CA6262" />
<rect x="37" y="14" width="1" height="2" fill="#CA6262" />
<rect x="43" y="14" width="1" height="2" fill="#CA6262" />
<rect x="45" y="14" width="1" height="2" fill="#CA6262" />
<rect x="46" y="14" width="1" height="6" fill="#DE7676" />
<rect x="50" y="14" width="1" height="2" fill="#DE7676" />
<rect x="51" y="14" width="1" height="2" fill="#CA6262" />
<rect x="57" y="14" width="1" height="2" fill="#CA6262" />
<rect x="58" y="14" width="1" height="10" fill="#D68585" />
<rect x="62" y="14" width="1" height="2" fill="#D68585" />
<rect x="63" y="14" width="1" height="2" fill="#CA6262" />
<rect x="0" y="16" width="1" height="2" fill="#CA6262" />
<rect x="4" y="16" width="1" height="2" fill="#CA6262" />
<rect x="12" y="16" width="1" height="2" fill="#CA6262" />
<rect x="13" y="16" width="1" height="2" fill="#DE7676" />
<rect x="18" y="16" width="1" height="2" fill="#CA6262" />
<rect x="20" y="16" width="1" height="2" fill="#CA6262" />
<rect x="24" y="16" width="1" height="2" fill="#CA6262" />
<rect x="25" y="16" width="1" height="10" fill="#DE7676" />
<rect x="30" y="16" width="1" height="2" fill="#CA6262" />
<rect x="32" y="16" width="1" height="2" fill="#CA6262" />
<rect x="36" y="16" width="1" height="2" fill="#CA6262" />
<rect x="44" y="16" width="1" height="2" fill="#CA6262" />
<rect x="45" y="16" width="1" height="2" fill="#DE7676" />
<rect x="50" y="16" width="1" height="2" fill="#CA6262" />
<rect x="52" y="16" width="1" height="2" fill="#CA6262" />
<rect x="56" y="16" width="1" height="2" fill="#CA6262" />
<rect x="57" y="16" width="1" height="10" fill="#D68585" />
<rect x="62" y="16" width="1" height="2" fill="#CA6262" />
<rect x="1" y="18" width="1" height="2" fill="#CA6262" />
<rect x="3" y="18" width="1" height="2" fill="#CA6262" />
<rect x="11" y="18" width="1" height="2" fill="#CA6262" />
<rect x="13" y="18" width="1" height="2" fill="#CA6262" />
<rect x="17" y="18" width="1" height="2" fill="#CA6262" />
<rect x="21" y="18" width="1" height="2" fill="#CA6262" />
<rect x="23" y="18" width="1" height="2" fill="#CA6262" />
<rect x="24" y="18" width="1" height="6" fill="#DE7676" />
<rect x="29" y="18" width="1" height="2" fill="#CA6262" />
<rect x="33" y="18" width="1" height="2" fill="#CA6262" />
<rect x="35" y="18" width="1" height="2" fill="#CA6262" />
<rect x="43" y="18" width="1" height="2" fill="#CA6262" />
<rect x="45" y="18" width="1" height="2" fill="#CA6262" />
<rect x="49" y="18" width="1" height="2" fill="#CA6262" />
<rect x="53" y="18" width="1" height="2" fill="#CA6262" />
<rect x="55" y="18" width="1" height="2" fill="#CA6262" />
<rect x="56" y="18" width="1" height="6" fill="#D68585" />
<rect x="61" y="18" width="1" height="2" fill="#CA6262" />
<rect x="2" y="20" width="1" height="2" fill="#CA6262" />
<rect x="10" y="20" width="1" height="2" fill="#CA6262" />
<rect x="14" y="20" width="1" height="2" fill="#CA6262" />
<rect x="16" y="20" width="1" height="2" fill="#CA6262" />
<rect x="22" y="20" width="1" height="2" fill="#CA6262" />
<rect x="23" y="20" width="1" height="2" fill="#DE7676" />
<rect x="28" y="20" width="1" height="2" fill="#CA6262" />
<rect x="34" y="20" width="1" height="2" fill="#CA6262" />
<rect x="42" y="20" width="1" height="2" fill="#CA6262" />
<rect x="46" y="20" width="1" height="2" fill="#CA6262" />
<rect x="48" y="20" width="1" height="2" fill="#CA6262" />
<rect x="54" y="20" width="1" height="2" fill="#CA6262" />
<rect x="55" y="20" width="1" height="2" fill="#D68585" />
<rect x="60" y="20" width="1" height="2" fill="#CA6262" />
<rect x="1" y="22" width="1" height="2" fill="#CA6262" />
<rect x="2" y="22" width="1" height="14" fill="#DE7676" />
<rect x="3" y="22" width="1" height="2" fill="#CA6262" />
<rect x="9" y="22" width="1" height="2" fill="#CA6262" />
<rect x="15" y="22" width="1" height="2" fill="#CA6262" />
<rect x="21" y="22" width="1" height="2" fill="#CA6262" />
<rect x="23" y="22" width="1" height="2" fill="#CA6262" />
<rect x="27" y="22" width="1" height="2" fill="#CA6262" />
<rect x="33" y="22" width="1" height="2" fill="#CA6262" />
<rect x="35" y="22" width="1" height="2" fill="#CA6262" />
<rect x="41" y="22" width="1" height="2" fill="#CA6262" />
<rect x="47" y="22" width="1" height="2" fill="#CA6262" />
<rect x="53" y="22" width="1" height="2" fill="#CA6262" />
<rect x="55" y="22" width="1" height="2" fill="#CA6262" />
<rect x="59" y="22" width="1" height="2" fill="#CA6262" />
<rect x="0" y="24" width="1" height="2" fill="#CA6262" />
<rect x="1" y="24" width="1" height="14" fill="#DE7676" />
<rect x="3" y="24" width="1" height="10" fill="#DE7676" />
<rect x="4" y="24" width="1" height="2" fill="#CA6262" />
<rect x="8" y="24" width="1" height="2" fill="#CA6262" />
<rect x="14" y="24" width="1" height="2" fill="#CA6262" />
<rect x="16" y="24" width="1" height="2" fill="#CA6262" />
<rect x="20" y="24" width="1" height="2" fill="#CA6262" />
<rect x="24" y="24" width="1" height="2" fill="#CA6262" />
<rect x="26" y="24" width="1" height="2" fill="#CA6262" />
<rect x="32" y="24" width="1" height="2" fill="#CA6262" />
<rect x="36" y="24" width="1" height="2" fill="#CA6262" />
<rect x="40" y="24" width="1" height="2" fill="#CA6262" />
<rect x="46" y="24" width="1" height="2" fill="#CA6262" />
<rect x="47" y="24" width="1" height="10" fill="#DE7676" />
<rect x="48" y="24" width="1" height="2" fill="#CA6262" />
<rect x="52" y="24" width="1" height="2" fill="#CA6262" />
<rect x="56" y="24" width="1" height="2" fill="#CA6262" />
<rect x="58" y="24" width="1" height="2" fill="#CA6262" />
<rect x="0" y="26" width="1" height="14" fill="#DE7676" />
<rect x="4" y="26" width="1" height="6" fill="#DE7676" />
<rect x="5" y="26" width="1" height="2" fill="#CA6262" />
<rect x="7" y="26" width="1" height="2" fill="#CA6262" />
<rect x="13" y="26" width="1" height="2" fill="#CA6262" />
<rect x="17" y="26" width="1" height="2" fill="#CA6262" />
<rect x="19" y="26" width="1" height="2" fill="#CA6262" />
<rect x="25" y="26" width="1" height="2" fill="#CA6262" />
<rect x="31" y="26" width="1" height="2" fill="#CA6262" />
<rect x="37" y="26" width="1" height="2" fill="#CA6262" />
<rect x="39" y="26" width="1" height="2" fill="#CA6262" />
<rect x="45" y="26" width="1" height="2" fill="#CA6262" />
<rect x="46" y="26" width="1" height="10" fill="#DE7676" />
<rect x="48" y="26" width="1" height="6" fill="#DE7676" />
<rect x="49" y="26" width="1" height="2" fill="#CA6262" />
<rect x="51" y="26" width="1" height="2" fill="#CA6262" />
<rect x="57" y="26" width="1" height="2" fill="#CA6262" />
<rect x="63" y="26" width="1" height="2" fill="#CA6262" />
<rect x="5" y="28" width="1" height="2" fill="#DE7676" />
<rect x="6" y="28" width="1" height="2" fill="#CA6262" />
<rect x="12" y="28" width="1" height="2" fill="#CA6262" />
<rect x="18" y="28" width="1" height="2" fill="#CA6262" />
<rect x="24" y="28" width="1" height="2" fill="#CA6262" />
<rect x="26" y="28" width="1" height="2" fill="#CA6262" />
<rect x="30" y="28" width="1" height="2" fill="#CA6262" />
<rect x="38" y="28" width="1" height="2" fill="#CA6262" />
<rect x="44" y="28" width="1" height="2" fill="#CA6262" />
<rect x="45" y="28" width="1" height="10" fill="#DE7676" />
<rect x="49" y="28" width="1" height="2" fill="#DE7676" />
<rect x="50" y="28" width="1" height="2" fill="#CA6262" />
<rect x="56" y="28" width="1" height="2" fill="#CA6262" />
<rect x="58" y="28" width="1" height="2" fill="#CA6262" />
<rect x="62" y="28" width="1" height="2" fill="#CA6262" />
<rect x="63" y="28" width="1" height="10" fill="#DE7676" />
<rect x="5" y="30" width="1" height="2" fill="#CA6262" />
<rect x="7" y="30" width="1" height="2" fill="#CA6262" />
<rect x="11" y="30" width="1" height="2" fill="#CA6262" />
<rect x="17" y="30" width="1" height="2" fill="#CA6262" />
<rect x="19" y="30" width="1" height="2" fill="#CA6262" />
<rect x="23" y="30" width="1" height="2" fill="#CA6262" />
<rect x="27" y="30" width="1" height="2" fill="#CA6262" />
<rect x="29" y="30" width="1" height="2" fill="#CA6262" />
<rect x="37" y="30" width="1" height="2" fill="#CA6262" />
<rect x="39" y="30" width="1" height="2" fill="#CA6262" />
<rect x="43" y="30" width="1" height="2" fill="#CA6262" />
<rect x="44" y="30" width="1" height="10" fill="#DE7676" />
<rect x="49" y="30" width="1" height="2" fill="#CA6262" />
<rect x="51" y="30" width="1" height="2" fill="#CA6262" />
<rect x="55" y="30" width="1" height="2" fill="#CA6262" />
<rect x="59" y="30" width="1" height="2" fill="#CA6262" />
<rect x="61" y="30" width="1" height="2" fill="#CA6262" />
<rect x="62" y="30" width="1" height="6" fill="#DE7676" />
<rect x="4" y="32" width="1" height="2" fill="#CA6262" />
<rect x="8" y="32" width="1" height="2" fill="#CA6262" />
<rect x="10" y="32" width="1" height="2" fill="#CA6262" />
<rect x="16" y="32" width="1" height="2" fill="#CA6262" />
<rect x="20" y="32" width="1" height="2" fill="#CA6262" />
<rect x="22" y="32" width="1" height="2" fill="#CA6262" />
<rect x="28" y="32" width="1" height="2" fill="#CA6262" />
<rect x="36" y="32" width="1" height="2" fill="#CA6262" />
<rect x="40" y="32" width="1" height="2" fill="#CA6262" />
<rect x="42" y="32" width="1" height="2" fill="#CA6262" />
<rect x="43" y="32" width="1" height="6" fill="#DE7676" />
<rect x="48" y="32" width="1" height="2" fill="#CA6262" />
<rect x="52" y="32" width="1" height="2" fill="#CA6262" />
<rect x="54" y="32" width="1" height="2" fill="#CA6262" />
<rect x="60" y="32" width="1" height="2" fill="#CA6262" />
<rect x="61" y="32" width="1" height="2" fill="#DE7676" />
<rect x="3" y="34" width="1" height="2" fill="#CA6262" />
<rect x="9" y="34" width="1" height="2" fill="#CA6262" />
<rect x="15" y="34" width="1" height="2" fill="#CA6262" />
<rect x="21" y="34" width="1" height="2" fill="#CA6262" />
<rect x="27" y="34" width="1" height="2" fill="#CA6262" />
<rect x="28" y="34" width="1" height="14" fill="#DE7676" />
<rect x="29" y="34" width="1" height="2" fill="#CA6262" />
<rect x="35" y="34" width="1" height="2" fill="#CA6262" />
<rect x="41" y="34" width="1" height="2" fill="#CA6262" />
<rect x="42" y="34" width="1" height="2" fill="#DE7676" />
<rect x="47" y="34" width="1" height="2" fill="#CA6262" />
<rect x="53" y="34" width="1" height="2" fill="#CA6262" />
<rect x="59" y="34" width="1" height="2" fill="#CA6262" />
<rect x="61" y="34" width="1" height="2" fill="#CA6262" />
<rect x="2" y="36" width="1" height="2" fill="#CA6262" />
<rect x="8" y="36" width="1" height="2" fill="#CA6262" />
<rect x="10" y="36" width="1" height="2" fill="#CA6262" />
<rect x="14" y="36" width="1" height="2" fill="#CA6262" />
<rect x="20" y="36" width="1" height="2" fill="#CA6262" />
<rect x="22" y="36" width="1" height="2" fill="#CA6262" />
<rect x="26" y="36" width="1" height="2" fill="#CA6262" />
<rect x="27" y="36" width="1" height="10" fill="#DE7676" />
<rect x="29" y="36" width="1" height="10" fill="#DE7676" />
<rect x="30" y="36" width="1" height="2" fill="#CA6262" />
<rect x="34" y="36" width="1" height="2" fill="#CA6262" />
<rect x="40" y="36" width="1" height="2" fill="#CA6262" />
<rect x="42" y="36" width="1" height="2" fill="#CA6262" />
<rect x="46" y="36" width="1" height="2" fill="#CA6262" />
<rect x="52" y="36" width="1" height="2" fill="#CA6262" />
<rect x="54" y="36" width="1" height="2" fill="#CA6262" />
<rect x="58" y="36" width="1" height="2" fill="#CA6262" />
<rect x="62" y="36" width="1" height="2" fill="#CA6262" />
<rect x="1" y="38" width="1" height="2" fill="#CA6262" />
<rect x="7" y="38" width="1" height="2" fill="#CA6262" />
<rect x="11" y="38" width="1" height="2" fill="#CA6262" />
<rect x="13" y="38" width="1" height="2" fill="#CA6262" />
<rect x="19" y="38" width="1" height="2" fill="#CA6262" />
<rect x="23" y="38" width="1" height="2" fill="#CA6262" />
<rect x="25" y="38" width="1" height="2" fill="#CA6262" />
<rect x="26" y="38" width="1" height="6" fill="#DE7676" />
<rect x="30" y="38" width="1" height="6" fill="#DE7676" />
<rect x="31" y="38" width="1" height="2" fill="#CA6262" />
<rect x="33" y="38" width="1" height="2" fill="#CA6262" />
<rect x="39" y="38" width="1" height="2" fill="#CA6262" />
<rect x="43" y="38" width="1" height="2" fill="#CA6262" />
<rect x="45" y="38" width="1" height="2" fill="#CA6262" />
<rect x="51" y="38" width="1" height="2" fill="#CA6262" />
<rect x="55" y="38" width="1" height="2" fill="#CA6262" />
<rect x="57" y="38" width="1" height="2" fill="#CA6262" />
<rect x="63" y="38" width="1" height="2" fill="#CA6262" />
<rect x="0" y="40" width="1" height="2" fill="#CA6262" />
<rect x="6" y="40" width="1" height="2" fill="#CA6262" />
<rect x="12" y="40" width="1" height="2" fill="#CA6262" />
<rect x="18" y="40" width="1" height="2" fill="#CA6262" />
<rect x="24" y="40" width="1" height="2" fill="#CA6262" />
<rect x="25" y="40" width="1" height="2" fill="#DE7676" />
<rect x="31" y="40" width="1" height="2" fill="#DE7676" />
<rect x="32" y="40" width="1" height="2" fill="#CA6262" />
<rect x="38" y="40" width="1" height="2" fill="#CA6262" />
<rect x="44" y="40" width="1" height="2" fill="#CA6262" />
<rect x="50" y="40" width="1" height="2" fill="#CA6262" />
<rect x="56" y="40" width="1" height="2" fill="#CA6262" />
<rect x="0" y="42" width="1" height="10" fill="#D68585" />
<rect x="1" y="42" width="1" height="2" fill="#CA6262" />
<rect x="5" y="42" width="1" height="2" fill="#CA6262" />
<rect x="11" y="42" width="1" height="2" fill="#CA6262" />
<rect x="13" y="42" width="1" height="2" fill="#CA6262" />
<rect x="17" y="42" width="1" height="2" fill="#CA6262" />
<rect x="23" y="42" width="1" height="2" fill="#CA6262" />
<rect x="25" y="42" width="1" height="2" fill="#CA6262" />
<rect x="31" y="42" width="1" height="2" fill="#CA6262" />
<rect x="33" y="42" width="1" height="2" fill="#CA6262" />
<rect x="37" y="42" width="1" height="2" fill="#CA6262" />
<rect x="43" y="42" width="1" height="2" fill="#CA6262" />
<rect x="45" y="42" width="1" height="2" fill="#CA6262" />
<rect x="49" y="42" width="1" height="2" fill="#CA6262" />
<rect x="55" y="42" width="1" height="2" fill="#CA6262" />
<rect x="57" y="42" width="1" height="2" fill="#CA6262" />
<rect x="63" y="42" width="1" height="2" fill="#CA6262" />
<rect x="1" y="44" width="1" height="6" fill="#D68585" />
<rect x="2" y="44" width="1" height="2" fill="#CA6262" />
<rect x="4" y="44" width="1" height="2" fill="#CA6262" />
<rect x="10" y="44" width="1" height="2" fill="#CA6262" />
<rect x="14" y="44" width="1" height="2" fill="#CA6262" />
<rect x="16" y="44" width="1" height="2" fill="#CA6262" />
<rect x="22" y="44" width="1" height="2" fill="#CA6262" />
<rect x="26" y="44" width="1" height="2" fill="#CA6262" />
<rect x="30" y="44" width="1" height="2" fill="#CA6262" />
<rect x="34" y="44" width="1" height="2" fill="#CA6262" />
<rect x="36" y="44" width="1" height="2" fill="#CA6262" />
<rect x="42" y="44" width="1" height="2" fill="#CA6262" />
<rect x="46" y="44" width="1" height="2" fill="#CA6262" />
<rect x="48" y="44" width="1" height="2" fill="#CA6262" />
<rect x="54" y="44" width="1" height="2" fill="#CA6262" />
<rect x="58" y="44" width="1" height="2" fill="#CA6262" />
<rect x="62" y="44" width="1" height="2" fill="#CA6262" />
<rect x="63" y="44" width="1" height="10" fill="#D68585" />
<rect x="2" y="46" width="1" height="2" fill="#D68585" />
<rect x="3" y="46" width="1" height="2" fill="#CA6262" />
<rect x="9" y="46" width="1" height="2" fill="#CA6262" />
<rect x="15" y="46" width="1" height="2" fill="#CA6262" />
<rect x="21" y="46" width="1" height="2" fill="#CA6262" />
<rect x="27" y="46" width="1" height="2" fill="#CA6262" />
<rect x="29" y="46" width="1" height="2" fill="#CA6262" />
<rect x="35" y="46" width="1" height="2" fill="#CA6262" />
<rect x="41" y="46" width="1" height="2" fill="#CA6262" />
<rect x="47" y="46" width="1" height="2" fill="#CA6262" />
<rect x="53" y="46" width="1" height="2" fill="#CA6262" />
<rect x="59" y="46" width="1" height="2" fill="#CA6262" />
<rect x="61" y="46" width="1" height="2" fill="#CA6262" />
<rect x="62" y="46" width="1" height="6" fill="#D68585" />
<rect x="2" y="48" width="1" height="2" fill="#CA6262" />
<rect x="4" y="48" width="1" height="2" fill="#CA6262" />
<rect x="8" y="48" width="1" height="2" fill="#CA6262" />
<rect x="14" y="48" width="1" height="2" fill="#CA6262" />
<rect x="16" y="48" width="1" height="2" fill="#CA6262" />
<rect x="20" y="48" width="1" height="2" fill="#CA6262" />
<rect x="28" y="48" width="1" height="2" fill="#CA6262" />
<rect x="34" y="48" width="1" height="2" fill="#CA6262" />
<rect x="36" y="48" width="1" height="2" fill="#CA6262" />
<rect x="40" y="48" width="1" height="2" fill="#CA6262" />
<rect x="46" y="48" width="1" height="2" fill="#CA6262" />
<rect x="48" y="48" width="1" height="2" fill="#CA6262" />
<rect x="52" y="48" width="1" height="2" fill="#CA6262" />
<rect x="60" y="48" width="1" height="2" fill="#CA6262" />
<rect x="61" y="48" width="1" height="2" fill="#D68585" />
<rect x="1" y="50" width="1" height="2" fill="#CA6262" />
<rect x="5" y="50" width="1" height="2" fill="#CA6262" />
<rect x="7" y="50" width="1" height="2" fill="#CA6262" />
<rect x="13" y="50" width="1" height="2" fill="#CA6262" />
<rect x="17" y="50" width="1" height="2" fill="#CA6262" />
<rect x="19" y="50" width="1" height="2" fill="#CA6262" />
<rect x="27" y="50" width="1" height="2" fill="#CA6262" />
<rect x="28" y="50" width="1" height="10" fill="#D68585" />
<rect x="29" y="50" width="1" height="2" fill="#CA6262" />
<rect x="33" y="50" width="1" height="2" fill="#CA6262" />
<rect x="37" y="50" width="1" height="2" fill="#CA6262" />
<rect x="39" y="50" width="1" height="2" fill="#CA6262" />
<rect x="45" y="50" width="1" height="2" fill="#CA6262" />
<rect x="49" y="50" width="1" height="2" fill="#CA6262" />
<rect x="51" y="50" width="1" height="2" fill="#CA6262" />
<rect x="59" y="50" width="1" height="2" fill="#CA6262" />
<rect x="61" y="50" width="1" height="2" fill="#CA6262" />
<rect x="0" y="52" width="1" height="2" fill="#CA6262" />
<rect x="6" y="52" width="1" height="2" fill="#CA6262" />
<rect x="12" y="52" width="1" height="2" fill="#CA6262" />
<rect x="18" y="52" width="1" height="2" fill="#CA6262" />
<rect x="26" y="52" width="1" height="2" fill="#CA6262" />
<rect x="27" y="52" width="1" height="10" fill="#D68585" />
<rect x="29" y="52" width="1" height="6" fill="#D68585" />
<rect x="30" y="52" width="1" height="2" fill="#CA6262" />
<rect x="32" y="52" width="1" height="2" fill="#CA6262" />
<rect x="38" y="52" width="1" height="2" fill="#CA6262" />
<rect x="44" y="52" width="1" height="2" fill="#CA6262" />
<rect x="50" y="52" width="1" height="2" fill="#CA6262" />
<rect x="58" y="52" width="1" height="2" fill="#CA6262" />
<rect x="62" y="52" width="1" height="2" fill="#CA6262" />
<rect x="5" y="54" width="1" height="2" fill="#CA6262" />
<rect x="6" y="54" width="1" height="10" fill="#DE7676" />
<rect x="7" y="54" width="1" height="2" fill="#CA6262" />
<rect x="11" y="54" width="1" height="2" fill="#CA6262" />
<rect x="17" y="54" width="1" height="2" fill="#CA6262" />
<rect x="19" y="54" width="1" height="2" fill="#CA6262" />
<rect x="25" y="54" width="1" height="2" fill="#CA6262" />
<rect x="26" y="54" width="1" height="10" fill="#D68585" />
<rect x="30" y="54" width="1" height="2" fill="#D68585" />
<rect x="31" y="54" width="1" height="2" fill="#CA6262" />
<rect x="37" y="54" width="1" height="2" fill="#CA6262" />
<rect x="39" y="54" width="1" height="2" fill="#CA6262" />
<rect x="43" y="54" width="1" height="2" fill="#CA6262" />
<rect x="49" y="54" width="1" height="2" fill="#CA6262" />
<rect x="50" y="54" width="1" height="10" fill="#DE7676" />
<rect x="51" y="54" width="1" height="2" fill="#CA6262" />
<rect x="57" y="54" width="1" height="2" fill="#CA6262" />
<rect x="63" y="54" width="1" height="2" fill="#CA6262" />
<rect x="0" y="56" width="1" height="2" fill="#CA6262" />
<rect x="4" y="56" width="1" height="2" fill="#CA6262" />
<rect x="5" y="56" width="1" height="8" fill="#DE7676" />
<rect x="7" y="56" width="1" height="6" fill="#DE7676" />
<rect x="8" y="56" width="1" height="2" fill="#CA6262" />
<rect x="10" y="56" width="1" height="2" fill="#CA6262" />
<rect x="16" y="56" width="1" height="2" fill="#CA6262" />
<rect x="20" y="56" width="1" height="2" fill="#CA6262" />
<rect x="24" y="56" width="1" height="2" fill="#CA6262" />
<rect x="25" y="56" width="1" height="8" fill="#D68585" />
<rect x="30" y="56" width="1" height="2" fill="#CA6262" />
<rect x="32" y="56" width="1" height="2" fill="#CA6262" />
<rect x="36" y="56" width="1" height="2" fill="#CA6262" />
<rect x="40" y="56" width="1" height="2" fill="#CA6262" />
<rect x="42" y="56" width="1" height="2" fill="#CA6262" />
<rect x="48" y="56" width="1" height="2" fill="#CA6262" />
<rect x="49" y="56" width="1" height="8" fill="#DE7676" />
<rect x="51" y="56" width="1" height="8" fill="#DE7676" />
<rect x="52" y="56" width="1" height="2" fill="#CA6262" />
<rect x="56" y="56" width="1" height="2" fill="#CA6262" />
<rect x="62" y="56" width="1" height="2" fill="#CA6262" />
<rect x="1" y="58" width="1" height="2" fill="#CA6262" />
<rect x="3" y="58" width="1" height="2" fill="#CA6262" />
<rect x="4" y="58" width="1" height="6" fill="#DE7676" />
<rect x="8" y="58" width="1" height="2" fill="#DE7676" />
<rect x="9" y="58" width="1" height="2" fill="#CA6262" />
<rect x="15" y="58" width="1" height="2" fill="#CA6262" />
<rect x="21" y="58" width="1" height="2" fill="#CA6262" />
<rect x="23" y="58" width="1" height="2" fill="#CA6262" />
<rect x="24" y="58" width="1" height="6" fill="#D68585" />
<rect x="29" y="58" width="1" height="2" fill="#CA6262" />
<rect x="33" y="58" width="1" height="2" fill="#CA6262" />
<rect x="35" y="58" width="1" height="2" fill="#CA6262" />
<rect x="41" y="58" width="1" height="2" fill="#CA6262" />
<rect x="47" y="58" width="1" height="2" fill="#CA6262" />
<rect x="48" y="58" width="1" height="6" fill="#DE7676" />
<rect x="52" y="58" width="1" height="6" fill="#DE7676" />
<rect x="53" y="58" width="1" height="2" fill="#CA6262" />
<rect x="55" y="58" width="1" height="2" fill="#CA6262" />
<rect x="61" y="58" width="1" height="2" fill="#CA6262" />
<rect x="2" y="60" width="1" height="2" fill="#CA6262" />
<rect x="3" y="60" width="1" height="2" fill="#DE7676" />
<rect x="8" y="60" width="1" height="2" fill="#CA6262" />
<rect x="10" y="60" width="1" height="2" fill="#CA6262" />
<rect x="14" y="60" width="1" height="2" fill="#CA6262" />
<rect x="22" y="60" width="1" height="2" fill="#CA6262" />
<rect x="23" y="60" width="1" height="2" fill="#D68585" />
<rect x="28" y="60" width="1" height="2" fill="#CA6262" />
<rect x="34" y="60" width="1" height="2" fill="#CA6262" />
<rect x="40" y="60" width="1" height="2" fill="#CA6262" />
<rect x="42" y="60" width="1" height="2" fill="#CA6262" />
<rect x="46" y="60" width="1" height="2" fill="#CA6262" />
<rect x="47" y="60" width="1" height="4" fill="#DE7676" />
<rect x="53" y="60" width="1" height="2" fill="#DE7676" />
<rect x="54" y="60" width="1" height="2" fill="#CA6262" />
<rect x="60" y="60" width="1" height="2" fill="#CA6262" />
<rect x="1" y="62" width="1" height="2" fill="#CA6262" />
<rect x="3" y="62" width="1" height="2" fill="#CA6262" />
<rect x="7" y="62" width="1" height="2" fill="#CA6262" />
<rect x="11" y="62" width="1" height="2" fill="#CA6262" />
<rect x="13" y="62" width="1" height="2" fill="#CA6262" />
<rect x="21" y="62" width="1" height="2" fill="#CA6262" />
<rect x="23" y="62" width="1" height="2" fill="#CA6262" />
<rect x="27" y="62" width="1" height="2" fill="#CA6262" />
<rect x="33" y="62" width="1" height="2" fill="#CA6262" />
<rect x="35" y="62" width="1" height="2" fill="#CA6262" />
<rect x="39" y="62" width="1" height="2" fill="#CA6262" />
<rect x="43" y="62" width="1" height="2" fill="#CA6262" />
<rect x="45" y="62" width="1" height="2" fill="#CA6262" />
<rect x="46" y="62" width="1" height="2" fill="#DE7676" />
<rect x="53" y="62" width="1" height="2" fill="#CA6262" />
<rect x="55" y="62" width="1" height="2" fill="#CA6262" />
<rect x="59" y="62" width="1" height="2" fill="#CA6262" />
</svg>